<mxfile host="Electron" agent="Mozilla/5.0 (Windows NT 10.0; Win64; x64) AppleWebKit/537.36 (KHTML, like Gecko) draw.io/26.2.15 Chrome/134.0.6998.205 Electron/35.2.1 Safari/537.36" version="26.2.15">
  <diagram name="第 1 页" id="qNwyIJbsAewoYlvI7qjJ">
    <mxGraphModel dx="2040" dy="828" grid="1" gridSize="10" guides="1" tooltips="1" connect="1" arrows="1" fold="1" page="1" pageScale="1" pageWidth="827" pageHeight="1169" math="0" shadow="0">
      <root>
        <mxCell id="0" />
        <mxCell id="1" parent="0" />
        <mxCell id="qnlgsFVKLHIAw8uuW5Ko-1" value="" style="ellipse;fillColor=strokeColor;" vertex="1" parent="1">
          <mxGeometry x="72" y="20" width="14" height="14" as="geometry" />
        </mxCell>
        <mxCell id="qnlgsFVKLHIAw8uuW5Ko-2" value="新建" style="rounded=1;arcSize=20;strokeWidth=2" vertex="1" parent="1">
          <mxGeometry x="55" y="84" width="48" height="40" as="geometry" />
        </mxCell>
        <mxCell id="qnlgsFVKLHIAw8uuW5Ko-3" value="处理中" style="rounded=1;arcSize=20;strokeWidth=2" vertex="1" parent="1">
          <mxGeometry x="47" y="197" width="64" height="40" as="geometry" />
        </mxCell>
        <mxCell id="qnlgsFVKLHIAw8uuW5Ko-4" value="已解决" style="rounded=1;arcSize=20;strokeWidth=2" vertex="1" parent="1">
          <mxGeometry x="47" y="422" width="64" height="40" as="geometry" />
        </mxCell>
        <mxCell id="qnlgsFVKLHIAw8uuW5Ko-5" value="升级中" style="rounded=1;arcSize=20;strokeWidth=2" vertex="1" parent="1">
          <mxGeometry x="105" y="309" width="64" height="40" as="geometry" />
        </mxCell>
        <mxCell id="qnlgsFVKLHIAw8uuW5Ko-6" value="已归档" style="rounded=1;arcSize=20;strokeWidth=2" vertex="1" parent="1">
          <mxGeometry x="47" y="535" width="64" height="40" as="geometry" />
        </mxCell>
        <mxCell id="qnlgsFVKLHIAw8uuW5Ko-7" value="" style="ellipse;shape=endState;fillColor=strokeColor;" vertex="1" parent="1">
          <mxGeometry x="71" y="625" width="14" height="14" as="geometry" />
        </mxCell>
        <mxCell id="qnlgsFVKLHIAw8uuW5Ko-8" value="" style="curved=1;startArrow=none;;exitX=0.46;exitY=1;entryX=0.49;entryY=0;rounded=0;" edge="1" parent="1" source="qnlgsFVKLHIAw8uuW5Ko-1" target="qnlgsFVKLHIAw8uuW5Ko-2">
          <mxGeometry relative="1" as="geometry">
            <Array as="points" />
          </mxGeometry>
        </mxCell>
        <mxCell id="qnlgsFVKLHIAw8uuW5Ko-9" value="值班员接收" style="curved=1;startArrow=none;;exitX=0.49;exitY=1;entryX=0.49;entryY=-0.01;rounded=0;" edge="1" parent="1" source="qnlgsFVKLHIAw8uuW5Ko-2" target="qnlgsFVKLHIAw8uuW5Ko-3">
          <mxGeometry relative="1" as="geometry">
            <Array as="points" />
          </mxGeometry>
        </mxCell>
        <mxCell id="qnlgsFVKLHIAw8uuW5Ko-10" value="问题修复确认" style="curved=1;startArrow=none;;exitX=0.17;exitY=0.99;entryX=0.17;entryY=0;rounded=0;" edge="1" parent="1" source="qnlgsFVKLHIAw8uuW5Ko-3" target="qnlgsFVKLHIAw8uuW5Ko-4">
          <mxGeometry relative="1" as="geometry">
            <Array as="points">
              <mxPoint x="20" y="273" />
              <mxPoint x="20" y="386" />
            </Array>
          </mxGeometry>
        </mxCell>
        <mxCell id="qnlgsFVKLHIAw8uuW5Ko-11" value="需管理员介入" style="curved=1;startArrow=none;;exitX=0.82;exitY=0.99;entryX=0.5;entryY=0.01;rounded=0;" edge="1" parent="1" source="qnlgsFVKLHIAw8uuW5Ko-3" target="qnlgsFVKLHIAw8uuW5Ko-5">
          <mxGeometry relative="1" as="geometry">
            <Array as="points">
              <mxPoint x="137" y="273" />
            </Array>
          </mxGeometry>
        </mxCell>
        <mxCell id="qnlgsFVKLHIAw8uuW5Ko-12" value="管理员处理完成" style="curved=1;startArrow=none;;exitX=0.5;exitY=1.01;entryX=0.82;entryY=0;rounded=0;" edge="1" parent="1" source="qnlgsFVKLHIAw8uuW5Ko-5" target="qnlgsFVKLHIAw8uuW5Ko-4">
          <mxGeometry relative="1" as="geometry">
            <Array as="points">
              <mxPoint x="137" y="386" />
            </Array>
          </mxGeometry>
        </mxCell>
        <mxCell id="qnlgsFVKLHIAw8uuW5Ko-13" value="完成满意度评价" style="curved=1;startArrow=none;;exitX=0.49;exitY=1;entryX=0.49;entryY=-0.01;rounded=0;" edge="1" parent="1" source="qnlgsFVKLHIAw8uuW5Ko-4" target="qnlgsFVKLHIAw8uuW5Ko-6">
          <mxGeometry relative="1" as="geometry">
            <Array as="points" />
          </mxGeometry>
        </mxCell>
        <mxCell id="qnlgsFVKLHIAw8uuW5Ko-14" value="" style="curved=1;startArrow=none;;exitX=0.49;exitY=0.99;entryX=0.54;entryY=-0.02;rounded=0;" edge="1" parent="1" source="qnlgsFVKLHIAw8uuW5Ko-6" target="qnlgsFVKLHIAw8uuW5Ko-7">
          <mxGeometry relative="1" as="geometry">
            <Array as="points" />
          </mxGeometry>
        </mxCell>
      </root>
    </mxGraphModel>
  </diagram>
</mxfile>
